CharisSIL-B.ufo
<glyph name="LtnDentalClick" format="1">
  <advance width="453"/>
  <unicode hex="01C0"/>
  <outline>
    <contour>
      <point x="309" y="-440" type="line"/>
      <point x="309" y="1507" type="line"/>
      <point x="144" y="1507" type="line"/>
      <point x="144" y="-440" type="line"/>
    </contour>
    <contour>
      <point x="226" y="1540" type="move" name="U"/>
    </contour>
    <contour>
      <point x="226" y="-500" type="move" name="L"/>
    </contour>
  </outline>
</glyph>
<glyph name="LtnCapEStrk" format="1">
  <advance width="1225"/>
  <unicode hex="0246"/>
  <outline>
    <contour>
      <point x="996" y="1532" type="line"/>
      <point x="54" y="-117" type="line"/>
      <point x="158" y="-178" type="line"/>
      <point x="1102" y="1473" type="line"/>
    </contour>
    <component base="LtnCapE"/>
    <contour>
      <point x="632" y="1500" type="move" name="U"/>
    </contour>
    <contour>
      <point x="632" y="-100" type="move" name="L"/>
    </contour>
  </outline>
</glyph>
<glyph name="LtnSmRamsHorn" format="1">
  <advance width="1184"/>
  <unicode hex="0264"/>
  <outline>
    <contour>
      <point x="1163" y="801" type="curve" smooth="yes"/>
      <point x="1163" y="913"/>
      <point x="1100" y="1024"/>
      <point x="981" y="1024" type="curve" smooth="yes"/>
      <point x="883" y="1024"/>
      <point x="795" y="903"/>
      <point x="737" y="819" type="curve" smooth="yes"/>
      <point x="618" y="643" type="line"/>
      <point x="489" y="852" type="line" smooth="yes"/>
      <point x="442" y="928"/>
      <point x="367" y="1024"/>
      <point x="203" y="1024" type="curve" smooth="yes"/>
      <point x="98" y="1024"/>
      <point x="20" y="911"/>
      <point x="20" y="801" type="curve" smooth="yes"/>
      <point x="20" y="727"/>
      <point x="25" y="659"/>
      <point x="25" y="625" type="curve"/>
      <point x="123" y="625" type="line"/>
      <point x="123" y="625"/>
      <point x="131" y="803"/>
      <point x="213" y="803" type="curve" smooth="yes"/>
      <point x="289" y="803"/>
      <point x="326" y="719"/>
      <point x="354" y="670" type="curve"/>
      <point x="354" y="670"/>
      <point x="420" y="557"/>
      <point x="487" y="442" type="curve"/>
      <point x="436" y="369" type="line" smooth="yes"/>
      <point x="399" y="313"/>
      <point x="356" y="248"/>
      <point x="356" y="186" type="curve" smooth="yes"/>
      <point x="356" y="18"/>
      <point x="489" y="-25"/>
      <point x="602" y="-25" type="curve" smooth="yes"/>
      <point x="723" y="-25"/>
      <point x="831" y="84"/>
      <point x="831" y="186" type="curve" smooth="yes"/>
      <point x="831" y="270"/>
      <point x="797" y="346"/>
      <point x="766" y="397" type="curve" smooth="yes"/>
      <point x="692" y="516" type="line"/>
      <point x="764" y="618"/>
      <point x="825" y="711"/>
      <point x="825" y="711" type="curve"/>
      <point x="856" y="756"/>
      <point x="907" y="803"/>
      <point x="967" y="803" type="curve" smooth="yes"/>
      <point x="1038" y="803"/>
      <point x="1063" y="625"/>
      <point x="1063" y="625" type="curve"/>
      <point x="1153" y="625" type="line"/>
      <point x="1153" y="672"/>
      <point x="1163" y="737"/>
    </contour>
    <contour>
      <point x="629" y="172" type="curve" smooth="yes"/>
      <point x="629" y="127"/>
      <point x="608" y="86"/>
      <point x="561" y="86" type="curve" smooth="yes"/>
      <point x="516" y="86"/>
      <point x="485" y="113"/>
      <point x="485" y="164" type="curve" smooth="yes"/>
      <point x="485" y="188"/>
      <point x="516" y="248"/>
      <point x="559" y="319" type="curve"/>
      <point x="600" y="248"/>
      <point x="629" y="190"/>
    </contour>
    <contour>
      <point x="591" y="1100" type="move" name="U"/>
    </contour>
    <contour>
      <point x="591" y="-100" type="move" name="L"/>
    </contour>
    <contour>
      <point x="1184" y="1000" type="move" name="R"/>
    </contour>
  </outline>
</glyph>
<glyph name="CombDwnTackBlw" format="1">
  <advance width="0"/>
  <unicode hex="031E"/>
  <outline>
    <contour>
      <point x="-408" y="-238" type="line"/>
      <point x="-408" y="-125" type="line"/>
      <point x="-787" y="-125" type="line"/>
      <point x="-787" y="-238" type="line"/>
      <point x="-654" y="-238" type="line"/>
      <point x="-654" y="-399" type="line"/>
      <point x="-541" y="-399" type="line"/>
      <point x="-541" y="-238" type="line"/>
    </contour>
    <contour>
      <point x="-598" y="-500" type="move" name="L"/>
    </contour>
    <contour>
      <point x="-598" y="-100" type="move" name="_L"/>
    </contour>
  </outline>
</glyph>
<glyph name="CombBridgeBlw" format="1">
  <advance width="0"/>
  <unicode hex="032A"/>
  <outline>
    <contour>
      <point x="-346" y="-434" type="line"/>
      <point x="-346" y="-125" type="line"/>
      <point x="-850" y="-125" type="line"/>
      <point x="-850" y="-434" type="line"/>
      <point x="-737" y="-434" type="line"/>
      <point x="-737" y="-238" type="line"/>
      <point x="-459" y="-238" type="line"/>
      <point x="-459" y="-434" type="line"/>
    </contour>
    <contour>
      <point x="-598" y="-500" type="move" name="L"/>
    </contour>
    <contour>
      <point x="-598" y="-100" type="move" name="_L"/>
    </contour>
  </outline>
</glyph>
<glyph name="CombLowLine" format="1">
  <advance width="0"/>
  <unicode hex="0332"/>
  <outline>
    <contour>
      <point x="98" y="-340" type="line"/>
      <point x="98" y="-175" type="line"/>
      <point x="-1294" y="-175" type="line"/>
      <point x="-1294" y="-340" type="line"/>
    </contour>
    <contour>
      <point x="-598" y="-100" type="move" name="_L"/>
    </contour>
    <contour>
      <point x="-598" y="-500" type="move" name="L"/>
    </contour>
  </outline>
</glyph>
<glyph name="CombDblOverline" format="1">
  <advance width="0"/>
  <unicode hex="033F"/>
  <outline>
    <contour>
      <point x="98" y="1200" type="line"/>
      <point x="98" y="1365" type="line"/>
      <point x="-1294" y="1365" type="line"/>
      <point x="-1294" y="1200" type="line"/>
    </contour>
    <contour>
      <point x="98" y="1465" type="line"/>
      <point x="98" y="1630" type="line"/>
      <point x="-1294" y="1630" type="line"/>
      <point x="-1294" y="1465" type="line"/>
    </contour>
    <contour>
      <point x="-598" y="1580" type="move" name="U"/>
    </contour>
    <contour>
      <point x="-598" y="1100" type="move" name="_U"/>
    </contour>
  </outline>
</glyph>
<glyph name="CySmEsDesc" format="1">
  <advance width="1028"/>
  <unicode hex="04AB"/>
  <outline>
    <contour>
      <point x="320" y="-362" type="line"/>
      <point x="320" y="-362"/>
      <point x="453" y="-426"/>
      <point x="515" y="-426" type="curve" smooth="yes"/>
      <point x="644" y="-426"/>
      <point x="742" y="-362"/>
      <point x="742" y="-254" type="curve" smooth="yes"/>
      <point x="742" y="-133"/>
      <point x="638" y="-41"/>
      <point x="576" y="2" type="curve"/>
      <point x="447" y="2" type="line"/>
      <point x="523" y="-55"/>
      <point x="576" y="-121"/>
      <point x="576" y="-201" type="curve" smooth="yes"/>
      <point x="576" y="-260"/>
      <point x="541" y="-307"/>
      <point x="474" y="-307" type="curve" smooth="yes"/>
      <point x="447" y="-307"/>
      <point x="396" y="-264"/>
      <point x="384" y="-256" type="curve"/>
    </contour>
    <component base="CySmEs"/>
    <contour>
      <point x="575" y="1100" type="move" name="U"/>
    </contour>
    <contour>
      <point x="508" y="-400" type="move" name="L"/>
    </contour>
  </outline>
</glyph>
<glyph name="CombMacron_Breve" format="1">
  <advance width="0"/>
  <unicode hex="1DCC"/>
  <outline>
    <contour>
      <point x="-1475" y="1200" type="line"/>
      <point x="-879" y="1200" type="line"/>
      <point x="-830" y="1111"/>
      <point x="-737" y="1048"/>
      <point x="-598" y="1048" type="curve" smooth="yes"/>
      <point x="-383" y="1048"/>
      <point x="-279" y="1201"/>
      <point x="-279" y="1365" type="curve"/>
      <point x="-385" y="1365" type="line"/>
      <point x="-412" y="1262"/>
      <point x="-508" y="1214"/>
      <point x="-598" y="1214" type="curve" smooth="yes"/>
      <point x="-691" y="1214"/>
      <point x="-785" y="1262"/>
      <point x="-811" y="1365" type="curve"/>
      <point x="-1475" y="1365" type="line"/>
    </contour>
    <contour>
      <point x="-880" y="1500" type="move" name="U"/>
    </contour>
    <contour>
      <point x="-880" y="1100" type="move" name="_U"/>
    </contour>
  </outline>
</glyph>
<glyph name="LtnSmIs" format="1">
  <advance width="1003"/>
  <unicode hex="A76D"/>
  <outline>
    <contour>
      <point x="403" y="999" type="line"/>
      <point x="403" y="1108" type="line" smooth="yes"/>
      <point x="403" y="1294"/>
      <point x="420" y="1371"/>
      <point x="469" y="1415" type="curve"/>
      <point x="487" y="1420"/>
      <point x="503" y="1423"/>
      <point x="519" y="1423" type="curve" smooth="yes"/>
      <point x="622" y="1423"/>
      <point x="673" y="1314"/>
      <point x="673" y="1208" type="curve" smooth="yes"/>
      <point x="673" y="1103"/>
      <point x="617" y="999"/>
      <point x="506" y="999" type="curve" smooth="yes"/>
    </contour>
    <contour>
      <point x="133" y="-87" type="line" smooth="yes"/>
      <point x="133" y="-329"/>
      <point x="70" y="-371"/>
      <point x="25" y="-371" type="curve"/>
      <point x="-188" y="-166" type="line"/>
      <point x="-268" y="-166"/>
      <point x="-317" y="-248"/>
      <point x="-317" y="-313" type="curve" smooth="yes"/>
      <point x="-317" y="-418"/>
      <point x="-188" y="-473"/>
      <point x="-96" y="-473" type="curve" smooth="yes"/>
      <point x="227" y="-473"/>
      <point x="401" y="-272"/>
      <point x="401" y="-23" type="curve" smooth="yes"/>
      <point x="401" y="868" type="line"/>
      <point x="466" y="868" type="line" smooth="yes"/>
      <point x="662" y="868"/>
      <point x="933" y="934"/>
      <point x="933" y="1214" type="curve" smooth="yes"/>
      <point x="933" y="1427"/>
      <point x="771" y="1516"/>
      <point x="602" y="1516" type="curve" smooth="yes"/>
      <point x="317" y="1516"/>
      <point x="131" y="1293"/>
      <point x="131" y="999" type="curve"/>
      <point x="-74" y="999" type="line"/>
      <point x="-74" y="868" type="line"/>
      <point x="133" y="868" type="line"/>
    </contour>
    <contour>
      <point x="514" y="1540" type="move" name="U"/>
    </contour>
    <contour>
      <point x="258" y="-500" type="move" name="L"/>
    </contour>
  </outline>
</glyph>
<glyph name="LtnSupSmTurnedVDep" format="1">
  <advance width="753"/>
  <unicode hex="F1B3"/>
  <outline>
    <contour>
      <point x="-17" y="755" type="line"/>
      <point x="772" y="755" type="line"/>
      <point x="772" y="1414" type="line"/>
      <point x="-17" y="1414" type="line"/>
    </contour>
    <contour>
      <point x="390" y="785" type="line"/>
      <point x="390" y="843" type="line"/>
      <point x="452" y="846" type="line" smooth="yes"/>
      <point x="467" y="847"/>
      <point x="475" y="860"/>
      <point x="471" y="873" type="curve"/>
      <point x="341" y="1214" type="line"/>
      <point x="194" y="873" type="line" smooth="yes"/>
      <point x="189" y="861"/>
      <point x="201" y="847"/>
      <point x="216" y="846" type="curve" smooth="yes"/>
      <point x="272" y="843" type="line"/>
      <point x="272" y="785" type="line"/>
      <point x="13" y="785" type="line"/>
      <point x="13" y="843" type="line"/>
      <point x="88" y="852" type="line"/>
      <point x="318" y="1384" type="line"/>
      <point x="448" y="1384" type="line"/>
      <point x="663" y="850" type="line"/>
      <point x="742" y="843" type="line"/>
      <point x="742" y="785" type="line"/>
    </contour>
    <contour>
      <point x="377" y="1450" type="move" name="U"/>
    </contour>
    <contour>
      <point x="377" y="725" type="move" name="L"/>
    </contour>
  </outline>
</glyph>
<glyph name="LtnSupSmEzhDep" format="1">
  <advance width="745"/>
  <unicode hex="F1B8"/>
  <outline>
    <contour>
      <point x="-9" y="471" type="line"/>
      <point x="733" y="471" type="line"/>
      <point x="733" y="1414" type="line"/>
      <point x="-9" y="1414" type="line"/>
    </contour>
    <contour>
      <point x="703" y="814" type="curve" smooth="yes"/>
      <point x="703" y="657"/>
      <point x="534" y="501"/>
      <point x="329" y="501" type="curve" smooth="yes"/>
      <point x="156" y="501"/>
      <point x="21" y="592"/>
      <point x="21" y="673" type="curve" smooth="yes"/>
      <point x="21" y="742"/>
      <point x="77" y="760"/>
      <point x="118" y="760" type="curve" smooth="yes"/>
      <point x="142" y="760"/>
      <point x="161" y="752"/>
      <point x="175" y="745" type="curve"/>
      <point x="220" y="608" type="line"/>
      <point x="248" y="601"/>
      <point x="305" y="580"/>
      <point x="341" y="580" type="curve" smooth="yes"/>
      <point x="441" y="580"/>
      <point x="507" y="717"/>
      <point x="507" y="813" type="curve" smooth="yes"/>
      <point x="507" y="907"/>
      <point x="466" y="972"/>
      <point x="363" y="972" type="curve" smooth="yes"/>
      <point x="317" y="972"/>
      <point x="311" y="962"/>
      <point x="311" y="962" type="curve"/>
      <point x="276" y="994" type="line"/>
      <point x="478" y="1245" type="line"/>
      <point x="202" y="1245" type="line" smooth="yes"/>
      <point x="189" y="1245"/>
      <point x="177" y="1230"/>
      <point x="175" y="1219" type="curve" smooth="yes"/>
      <point x="166" y="1110" type="line"/>
      <point x="72" y="1110" type="line"/>
      <point x="72" y="1384" type="line"/>
      <point x="666" y="1384" type="line"/>
      <point x="666" y="1328" type="line"/>
      <point x="423" y="1032" type="line"/>
      <point x="587" y="1032"/>
      <point x="703" y="920"/>
    </contour>
    <contour>
      <point x="362" y="1457" type="move" name="U"/>
    </contour>
    <contour>
      <point x="362" y="485" type="move" name="L"/>
    </contour>
  </outline>
</glyph>
<glyph name="ModSmTurnedHDep" format="1">
  <advance width="833"/>
  <unicode hex="F1BB"/>
  <outline>
    <contour>
      <point x="4" y="471" type="line"/>
      <point x="838" y="471" type="line"/>
      <point x="838" y="1414" type="line"/>
      <point x="4" y="1414" type="line"/>
    </contour>
    <contour>
      <point x="604" y="501" type="line"/>
      <point x="535" y="501" type="line"/>
      <point x="535" y="846" type="line"/>
      <point x="535" y="846"/>
      <point x="406" y="770"/>
      <point x="302" y="770" type="curve" smooth="yes"/>
      <point x="145" y="770"/>
      <point x="120" y="889"/>
      <point x="120" y="963" type="curve" smooth="yes"/>
      <point x="120" y="1295" type="line" smooth="yes"/>
      <point x="120" y="1309"/>
      <point x="107" y="1322"/>
      <point x="90" y="1323" type="curve" smooth="yes"/>
      <point x="34" y="1327" type="line"/>
      <point x="34" y="1384" type="line"/>
      <point x="370" y="1384" type="line"/>
      <point x="370" y="1327" type="line"/>
      <point x="328" y="1323" type="line" smooth="yes"/>
      <point x="311" y="1322"/>
      <point x="298" y="1309"/>
      <point x="298" y="1295" type="curve" smooth="yes"/>
      <point x="298" y="1005" type="line" smooth="yes"/>
      <point x="298" y="964"/>
      <point x="311" y="883"/>
      <point x="410" y="883" type="curve" smooth="yes"/>
      <point x="463" y="883"/>
      <point x="535" y="899"/>
      <point x="535" y="899" type="curve"/>
      <point x="535" y="1295" type="line" smooth="yes"/>
      <point x="535" y="1309"/>
      <point x="522" y="1322"/>
      <point x="506" y="1323" type="curve" smooth="yes"/>
      <point x="460" y="1327" type="line"/>
      <point x="460" y="1384" type="line"/>
      <point x="798" y="1384" type="line"/>
      <point x="798" y="1327" type="line"/>
      <point x="743" y="1323" type="line" smooth="yes"/>
      <point x="727" y="1322"/>
      <point x="714" y="1309"/>
      <point x="714" y="1295" type="curve" smooth="yes"/>
      <point x="714" y="613" type="line"/>
      <point x="808" y="613" type="line"/>
      <point x="808" y="562" type="line"/>
    </contour>
    <contour>
      <point x="421" y="1450" type="move" name="U"/>
    </contour>
    <contour>
      <point x="421" y="485" type="move" name="L"/>
    </contour>
  </outline>
</glyph>
<glyph name="DotTnLtr3Dep" format="1">
  <advance width="759"/>
  <unicode hex="F1D7"/>
  <outline>
    <contour>
      <point x="70" y="-30" type="line"/>
      <point x="644" y="-30" type="line"/>
      <point x="644" y="1510" type="line"/>
      <point x="70" y="1510" type="line"/>
    </contour>
    <contour>
      <point x="195" y="646" type="curve" smooth="yes"/>
      <point x="143" y="646"/>
      <point x="100" y="689"/>
      <point x="100" y="741" type="curve" smooth="yes"/>
      <point x="100" y="793"/>
      <point x="143" y="836"/>
      <point x="195" y="836" type="curve" smooth="yes"/>
      <point x="247" y="836"/>
      <point x="290" y="793"/>
      <point x="290" y="741" type="curve" smooth="yes"/>
      <point x="290" y="689"/>
      <point x="247" y="646"/>
    </contour>
    <contour>
      <point x="614" y="77" type="line"/>
      <point x="614" y="35"/>
      <point x="579" y="0"/>
      <point x="537" y="0" type="curve" smooth="yes"/>
      <point x="495" y="0"/>
      <point x="460" y="35"/>
      <point x="460" y="77" type="curve" smooth="yes"/>
      <point x="460" y="1403" type="line" smooth="yes"/>
      <point x="460" y="1445"/>
      <point x="495" y="1480"/>
      <point x="537" y="1480" type="curve" smooth="yes"/>
      <point x="579" y="1480"/>
      <point x="614" y="1445"/>
      <point x="614" y="1403" type="curve" smooth="yes"/>
    </contour>
  </outline>
</glyph>
<glyph name="ModShortEqSgnDep" format="1">
  <advance width="672"/>
  <unicode hex="F1EA"/>
  <outline>
    <contour>
      <point x="38" y="152" type="line"/>
      <point x="634" y="152" type="line"/>
      <point x="634" y="835" type="line"/>
      <point x="38" y="835" type="line"/>
    </contour>
    <contour>
      <point x="68" y="588" type="line"/>
      <point x="68" y="805" type="line"/>
      <point x="604" y="805" type="line"/>
      <point x="604" y="588" type="line"/>
    </contour>
    <contour>
      <point x="68" y="182" type="line"/>
      <point x="68" y="399" type="line"/>
      <point x="604" y="399" type="line"/>
      <point x="604" y="182" type="line"/>
    </contour>
  </outline>
</glyph>
<glyph name="TnLtrNineSeg55" format="1">
  <advance width="1080"/>
  <unicode hex="F1F5"/>
  <outline>
    <contour>
      <point x="1" y="514" type="curve" smooth="yes"/>
      <point x="1079" y="514" type="line" smooth="yes"/>
      <point x="1121" y="514"/>
      <point x="1156" y="549"/>
      <point x="1156" y="591" type="curve" smooth="yes"/>
      <point x="1156" y="633"/>
      <point x="1121" y="668"/>
      <point x="1079" y="668" type="curve" smooth="yes"/>
      <point x="1" y="668" type="line" smooth="yes"/>
      <point x="-41" y="668"/>
      <point x="-76" y="633"/>
      <point x="-76" y="591" type="curve" smooth="yes"/>
      <point x="-76" y="549"/>
      <point x="-41" y="514"/>
    </contour>
  </outline>
</glyph>
<glyph name="LtnSmVPalHookDep" format="1">
  <advance width="1159"/>
  <unicode hex="F231"/>
  <outline>
    <contour>
      <point x="-10" y="-499" type="line"/>
      <point x="1171" y="-499" type="line"/>
      <point x="1171" y="1029" type="line"/>
      <point x="-10" y="1029" type="line"/>
    </contour>
    <contour>
      <point x="1024" y="889" type="line"/>
      <point x="715" y="110" type="line"/>
      <point x="1047" y="110" type="line"/>
      <point x="1047" y="-215" type="line" smooth="yes"/>
      <point x="1047" y="-397"/>
      <point x="915" y="-469"/>
      <point x="786" y="-469" type="curve" smooth="yes"/>
      <point x="711" y="-469"/>
      <point x="582" y="-426"/>
      <point x="582" y="-328" type="curve" smooth="yes"/>
      <point x="582" y="-221"/>
      <point x="633" y="-176"/>
      <point x="699" y="-139" type="curve"/>
      <point x="845" y="-326" type="line"/>
      <point x="897" y="-326"/>
      <point x="918" y="-309"/>
      <point x="918" y="-219" type="curve" smooth="yes"/>
      <point x="918" y="0" type="line"/>
      <point x="469" y="0" type="line"/>
      <point x="141" y="891" type="line"/>
      <point x="20" y="903" type="line"/>
      <point x="20" y="999" type="line"/>
      <point x="559" y="999" type="line"/>
      <point x="559" y="903" type="line"/>
      <point x="465" y="897" type="line" smooth="yes"/>
      <point x="440" y="895"/>
      <point x="428" y="874"/>
      <point x="436" y="852" type="curve" smooth="yes"/>
      <point x="637" y="285" type="line"/>
      <point x="860" y="852" type="line" smooth="yes"/>
      <point x="868" y="872"/>
      <point x="852" y="895"/>
      <point x="829" y="897" type="curve" smooth="yes"/>
      <point x="743" y="903" type="line"/>
      <point x="743" y="999" type="line"/>
      <point x="1141" y="999" type="line"/>
      <point x="1141" y="903" type="line"/>
    </contour>
    <contour>
      <point x="580" y="1100" type="move" name="U"/>
    </contour>
    <contour>
      <point x="580" y="-500" type="move" name="L"/>
    </contour>
  </outline>
</glyph>
<glyph name="LtnCapZPalHook" format="1">
  <advance width="1190"/>
  <unicode hex="F234"/>
  <outline>
    <contour>
      <point x="1114" y="-215" type="curve"/>
      <point x="1114" y="32" type="line"/>
      <point x="985" y="32" type="line"/>
      <point x="985" y="-219" type="line" smooth="yes"/>
      <point x="985" y="-309"/>
      <point x="942" y="-326"/>
      <point x="862" y="-326" type="curve"/>
      <point x="666" y="-139" type="line"/>
      <point x="600" y="-176"/>
      <point x="549" y="-221"/>
      <point x="549" y="-328" type="curve" smooth="yes"/>
      <point x="549" y="-426"/>
      <point x="703" y="-469"/>
      <point x="803" y="-469" type="curve" smooth="yes"/>
      <point x="932" y="-469"/>
      <point x="1114" y="-397"/>
    </contour>
    <component base="LtnCapZ"/>
    <contour>
      <point x="616" y="1500" type="move" name="U"/>
    </contour>
    <contour>
      <point x="616" y="-500" type="move" name="L"/>
    </contour>
  </outline>
</glyph>
<glyph name="LtnCapKDescDep" format="1">
  <advance width="1397"/>
  <unicode hex="F263"/>
  <outline>
    <contour>
      <point x="29" y="-450" type="line"/>
      <point x="1427" y="-450" type="line"/>
      <point x="1427" y="1404" type="line"/>
      <point x="29" y="1404" type="line"/>
    </contour>
    <contour>
      <point x="1397" y="104" type="line"/>
      <point x="1397" y="-420" type="line"/>
      <point x="1248" y="-420" type="line"/>
      <point x="1221" y="-125"/>
      <point x="1168" y="0"/>
      <point x="973" y="0" type="curve" smooth="yes"/>
      <point x="952" y="0" type="line"/>
      <point x="952" y="76" type="line"/>
      <point x="618" y="600" type="line"/>
      <point x="506" y="600" type="line"/>
      <point x="506" y="160" type="line" smooth="yes"/>
      <point x="506" y="133"/>
      <point x="526" y="117"/>
      <point x="551" y="115" type="curve" smooth="yes"/>
      <point x="659" y="104" type="line"/>
      <point x="659" y="0" type="line"/>
      <point x="59" y="0" type="line"/>
      <point x="59" y="104" type="line"/>
      <point x="168" y="115" type="line" smooth="yes"/>
      <point x="193" y="117"/>
      <point x="213" y="133"/>
      <point x="213" y="160" type="curve" smooth="yes"/>
      <point x="213" y="1214" type="line" smooth="yes"/>
      <point x="213" y="1241"/>
      <point x="193" y="1257"/>
      <point x="168" y="1260" type="curve"/>
      <point x="59" y="1270" type="line"/>
      <point x="59" y="1374" type="line"/>
      <point x="659" y="1374" type="line"/>
      <point x="659" y="1270" type="line"/>
      <point x="551" y="1260" type="line"/>
      <point x="526" y="1257"/>
      <point x="506" y="1241"/>
      <point x="506" y="1214" type="curve" smooth="yes"/>
      <point x="506" y="698" type="line"/>
      <point x="563" y="698" type="line"/>
      <point x="1004" y="1235" type="line" smooth="yes"/>
      <point x="1010" y="1243"/>
      <point x="1008" y="1260"/>
      <point x="993" y="1260" type="curve"/>
      <point x="877" y="1270" type="line"/>
      <point x="877" y="1374" type="line"/>
      <point x="1346" y="1374" type="line"/>
      <point x="1346" y="1270" type="line"/>
      <point x="1346" y="1270"/>
      <point x="1268" y="1264"/>
      <point x="1202" y="1257" type="curve"/>
      <point x="821" y="803" type="line"/>
      <point x="1251" y="117" type="line"/>
    </contour>
    <contour>
      <point x="683" y="1500" type="move" name="U"/>
    </contour>
    <contour>
      <point x="683" y="-100" type="move" name="L"/>
    </contour>
  </outline>
</glyph>
<glyph name="LtnSmLRetrHookBeltDep" format="1">
  <advance width="788"/>
  <unicode hex="F266"/>
  <outline>
    <contour>
      <point x="-53" y="-479" type="line"/>
      <point x="943" y="-479" type="line"/>
      <point x="943" y="1546" type="line"/>
      <point x="-53" y="1546" type="line"/>
    </contour>
    <contour>
      <point x="524" y="14" type="line"/>
      <point x="524" y="14"/>
      <point x="520" y="-256"/>
      <point x="582" y="-358" type="curve"/>
      <point x="782" y="-156" type="line"/>
      <point x="854" y="-156"/>
      <point x="913" y="-221"/>
      <point x="913" y="-293" type="curve" smooth="yes"/>
      <point x="913" y="-393"/>
      <point x="819" y="-449"/>
      <point x="709" y="-449" type="curve" smooth="yes"/>
      <point x="383" y="-449"/>
      <point x="252" y="-168"/>
      <point x="252" y="121" type="curve" smooth="yes"/>
      <point x="252" y="528" type="line"/>
      <point x="145" y="524"/>
      <point x="-23" y="588"/>
      <point x="-23" y="784" type="curve" smooth="yes"/>
      <point x="-23" y="940"/>
      <point x="106" y="989"/>
      <point x="176" y="989" type="curve" smooth="yes"/>
      <point x="211" y="989"/>
      <point x="236" y="975"/>
      <point x="252" y="958" type="curve"/>
      <point x="252" y="1329" type="line"/>
      <point x="106" y="1329" type="line"/>
      <point x="106" y="1413" type="line"/>
      <point x="420" y="1516" type="line"/>
      <point x="524" y="1516" type="line"/>
      <point x="524" y="645" type="line"/>
      <point x="629" y="674"/>
      <point x="713" y="748"/>
      <point x="766" y="780" type="curve"/>
      <point x="788" y="686" type="line"/>
      <point x="729" y="647"/>
      <point x="614" y="561"/>
      <point x="524" y="537" type="curve"/>
    </contour>
    <contour>
      <point x="252" y="799" type="line"/>
      <point x="236" y="874"/>
      <point x="190" y="885"/>
      <point x="158" y="885" type="curve" smooth="yes"/>
      <point x="119" y="885"/>
      <point x="82" y="858"/>
      <point x="82" y="801" type="curve" smooth="yes"/>
      <point x="82" y="682"/>
      <point x="135" y="651"/>
      <point x="252" y="635" type="curve"/>
    </contour>
    <contour>
      <point x="420" y="1540" type="move" name="U"/>
    </contour>
    <contour>
      <point x="420" y="-500" type="move" name="L"/>
    </contour>
  </outline>
</glyph>
<glyph name="CySmHaHook.sc" format="1">
  <advance width="1264"/>
  <outline>
    <contour>
      <point x="1206" y="1021" type="line"/>
      <point x="1206" y="1120" type="line"/>
      <point x="786" y="1120" type="line"/>
      <point x="786" y="1021" type="line"/>
      <point x="883" y="1014" type="line"/>
      <point x="895" y="1014"/>
      <point x="903" y="999"/>
      <point x="894" y="987" type="curve"/>
      <point x="667" y="726" type="line"/>
      <point x="667" y="725" type="line"/>
      <point x="482" y="985" type="line"/>
      <point x="471" y="999"/>
      <point x="481" y="1013"/>
      <point x="492" y="1013" type="curve"/>
      <point x="590" y="1021" type="line"/>
      <point x="590" y="1120" type="line"/>
      <point x="49" y="1120" type="line"/>
      <point x="49" y="1021" type="line"/>
      <point x="165" y="1005" type="line"/>
      <point x="165" y="1009" type="line"/>
      <point x="507" y="535" type="line"/>
      <point x="144" y="110" type="line"/>
      <point x="144" y="113" type="line"/>
      <point x="24" y="100" type="line"/>
      <point x="24" y="0" type="line"/>
      <point x="461" y="0" type="line"/>
      <point x="461" y="100" type="line"/>
      <point x="424" y="102"/>
      <point x="386" y="106"/>
      <point x="350" y="108" type="curve"/>
      <point x="339" y="110"/>
      <point x="328" y="122"/>
      <point x="339" y="135" type="curve"/>
      <point x="588" y="423" type="line"/>
      <point x="889" y="16" type="line"/>
      <point x="913" y="-15" type="line"/>
      <point x="949" y="-61"/>
      <point x="994" y="-118"/>
      <point x="994" y="-148" type="curve" smooth="yes"/>
      <point x="994" y="-172"/>
      <point x="992" y="-196"/>
      <point x="973" y="-220" type="curve"/>
      <point x="973" y="-217" type="line"/>
      <point x="759" y="-135" type="line"/>
      <point x="727" y="-162"/>
      <point x="699" y="-210"/>
      <point x="699" y="-261" type="curve" smooth="yes"/>
      <point x="699" y="-331"/>
      <point x="796" y="-380"/>
      <point x="870" y="-380" type="curve" smooth="yes"/>
      <point x="1121" y="-380"/>
      <point x="1202" y="-253"/>
      <point x="1202" y="-98" type="curve" smooth="yes"/>
      <point x="1202" y="-28"/>
      <point x="1129" y="90"/>
      <point x="1078" y="160" type="curve" smooth="yes"/>
      <point x="969" y="312"/>
      <point x="858" y="462"/>
      <point x="748" y="613" type="curve"/>
      <point x="1090" y="1009" type="line"/>
      <point x="1090" y="1005" type="line"/>
    </contour>
    <contour>
      <point x="621" y="1238" type="move" name="U"/>
    </contour>
    <contour>
      <point x="621" y="-402" type="move" name="L"/>
    </contour>
  </outline>
</glyph>
<glyph name="CySmYa.sc" format="1">
  <advance width="1327"/>
  <outline>
    <contour>
      <point x="1254" y="0" type="line"/>
      <point x="1254" y="100" type="line"/>
      <point x="1157" y="108" type="line"/>
      <point x="1134" y="110"/>
      <point x="1114" y="121"/>
      <point x="1114" y="137" type="curve"/>
      <point x="1114" y="984" type="line"/>
      <point x="1114" y="1000"/>
      <point x="1136" y="1010"/>
      <point x="1157" y="1013" type="curve"/>
      <point x="1254" y="1021" type="line"/>
      <point x="1254" y="1120" type="line"/>
      <point x="642" y="1120" type="line"/>
      <point x="505" y="1120"/>
      <point x="239" y="1080"/>
      <point x="239" y="839" type="curve" smooth="yes"/>
      <point x="239" y="641"/>
      <point x="408" y="574"/>
      <point x="518" y="550" type="curve"/>
      <point x="372" y="505"/>
      <point x="320" y="388"/>
      <point x="287" y="289" type="curve" smooth="yes"/>
      <point x="275" y="254"/>
      <point x="264" y="218"/>
      <point x="245" y="184" type="curve" smooth="yes"/>
      <point x="214" y="134"/>
      <point x="165" y="97"/>
      <point x="60" y="97" type="curve" smooth="yes"/>
      <point x="43" y="97"/>
      <point x="25" y="98"/>
      <point x="6" y="100" type="curve"/>
      <point x="6" y="0" type="line"/>
      <point x="84" y="-20"/>
      <point x="144" y="-26"/>
      <point x="190" y="-26" type="curve" smooth="yes"/>
      <point x="312" y="-26"/>
      <point x="389" y="9"/>
      <point x="443" y="61" type="curve" smooth="yes"/>
      <point x="496" y="113"/>
      <point x="526" y="189"/>
      <point x="555" y="261" type="curve" smooth="yes"/>
      <point x="600" y="374"/>
      <point x="644" y="484"/>
      <point x="813" y="484" type="curve"/>
      <point x="850" y="484" type="line"/>
      <point x="850" y="137" type="line"/>
      <point x="850" y="121"/>
      <point x="832" y="110"/>
      <point x="810" y="108" type="curve"/>
      <point x="707" y="100" type="line"/>
      <point x="707" y="0" type="line"/>
    </contour>
    <contour>
      <point x="850" y="600" type="line"/>
      <point x="817" y="599" type="line"/>
      <point x="803" y="598"/>
      <point x="795" y="597"/>
      <point x="789" y="597" type="curve" smooth="yes"/>
      <point x="673" y="597"/>
      <point x="516" y="627"/>
      <point x="516" y="808" type="curve" smooth="yes"/>
      <point x="516" y="941"/>
      <point x="613" y="1005"/>
      <point x="791" y="1005" type="curve" smooth="yes"/>
      <point x="791" y="1005"/>
      <point x="802" y="1006"/>
      <point x="821" y="1006" type="curve" smooth="yes"/>
      <point x="829" y="1006"/>
      <point x="841" y="1006"/>
      <point x="850" y="1005" type="curve"/>
    </contour>
    <contour>
      <point x="637" y="1238" type="move" name="U"/>
    </contour>
    <contour>
      <point x="637" y="-74" type="move" name="L"/>
    </contour>
  </outline>
</glyph>
<glyph name="LtnSmAStrk.sc" format="1">
  <advance width="1293"/>
  <outline>
    <contour>
      <point x="996" y="1246" type="line"/>
      <point x="140" y="-90" type="line"/>
      <point x="237" y="-142" type="line"/>
      <point x="1096" y="1196" type="line"/>
    </contour>
    <contour>
      <point x="1264" y="0" type="line"/>
      <point x="1264" y="100" type="line"/>
      <point x="1194" y="112" type="line"/>
      <point x="1167" y="116"/>
      <point x="1161" y="123"/>
      <point x="1154" y="139" type="curve"/>
      <point x="1154" y="138" type="line"/>
      <point x="741" y="1147" type="line"/>
      <point x="535" y="1147" type="line"/>
      <point x="119" y="107" type="line"/>
      <point x="119" y="113" type="line"/>
      <point x="16" y="100" type="line"/>
      <point x="16" y="0" type="line"/>
      <point x="413" y="0" type="line"/>
      <point x="413" y="100" type="line"/>
      <point x="309" y="112" type="line"/>
      <point x="299" y="113"/>
      <point x="279" y="124"/>
      <point x="283" y="135" type="curve"/>
      <point x="385" y="390" type="line"/>
      <point x="385" y="385" type="line"/>
      <point x="780" y="385" type="line"/>
      <point x="780" y="390" type="line"/>
      <point x="880" y="129" type="line"/>
      <point x="883" y="121"/>
      <point x="873" y="113"/>
      <point x="863" y="112" type="curve"/>
      <point x="754" y="100" type="line"/>
      <point x="754" y="0" type="line"/>
    </contour>
    <contour>
      <point x="730" y="499" type="line"/>
      <point x="424" y="499" type="line"/>
      <point x="475" y="628"/>
      <point x="525" y="753"/>
      <point x="575" y="883" type="curve"/>
    </contour>
    <contour>
      <point x="646" y="1238" type="move" name="U"/>
    </contour>
    <contour>
      <point x="646" y="-74" type="move" name="L"/>
    </contour>
    <contour>
      <point x="1187" y="8" type="move" name="O"/>
    </contour>
    <contour>
      <point x="646" y="8" type="move" name="H"/>
    </contour>
  </outline>
</glyph>
<glyph name="LtnSmEgAin.sc" format="1">
  <advance width="535"/>
  <outline>
    <contour>
      <point x="93" y="870" type="curve" smooth="yes"/>
      <point x="93" y="707"/>
      <point x="220" y="592"/>
      <point x="441" y="592" type="curve"/>
      <point x="441" y="719" type="line"/>
      <point x="320" y="719"/>
      <point x="219" y="772"/>
      <point x="219" y="870" type="curve" smooth="yes"/>
      <point x="219" y="961"/>
      <point x="320" y="1018"/>
      <point x="441" y="1018" type="curve"/>
      <point x="441" y="1147" type="line"/>
      <point x="220" y="1147"/>
      <point x="93" y="1028"/>
    </contour>
    <contour>
      <point x="272" y="1185" type="move" name="U"/>
    </contour>
    <contour>
      <point x="272" y="-74" type="move" name="L"/>
    </contour>
  </outline>
</glyph>
<glyph name="LtnSmVDiagStrk.sc" format="1">
  <advance width="1330"/>
  <outline>
    <contour>
      <point x="1292" y="1021" type="line"/>
      <point x="1292" y="1120" type="line"/>
      <point x="879" y="1120" type="line"/>
      <point x="879" y="1021" type="line"/>
      <point x="978" y="1009" type="line"/>
      <point x="1004" y="1005"/>
      <point x="1006" y="993"/>
      <point x="1004" y="984" type="curve"/>
      <point x="1004" y="985" type="line"/>
      <point x="721" y="266" type="line"/>
      <point x="430" y="983" type="line"/>
      <point x="426" y="991"/>
      <point x="431" y="1004"/>
      <point x="447" y="1009" type="curve"/>
      <point x="551" y="1021" type="line"/>
      <point x="551" y="1120" type="line"/>
      <point x="25" y="1120" type="line"/>
      <point x="25" y="1021" type="line"/>
      <point x="144" y="1005" type="line"/>
      <point x="144" y="1011" type="line"/>
      <point x="571" y="-26" type="line"/>
      <point x="758" y="-26" type="line"/>
      <point x="1175" y="1013" type="line"/>
      <point x="1175" y="1007" type="line"/>
    </contour>
    <contour>
      <point x="730" y="1245" type="line"/>
      <point x="197" y="-107" type="line"/>
      <point x="302" y="-141" type="line"/>
      <point x="836" y="1213" type="line"/>
    </contour>
    <contour>
      <point x="704" y="1238" type="move" name="U"/>
    </contour>
    <contour>
      <point x="677" y="-74" type="move" name="L"/>
    </contour>
  </outline>
</glyph>
<glyph name="LtnSmVHook.StraightLftHighHook.sc" format="1">
  <advance width="1248"/>
  <outline>
    <contour>
      <point x="1189" y="1015" type="curve" smooth="yes"/>
      <point x="1189" y="1170"/>
      <point x="1131" y="1274"/>
      <point x="917" y="1274" type="curve" smooth="yes"/>
      <point x="817" y="1274"/>
      <point x="709" y="1206"/>
      <point x="709" y="1122" type="curve"/>
      <point x="711" y="1056"/>
      <point x="763" y="1015"/>
      <point x="816" y="993" type="curve"/>
      <point x="868" y="1028"/>
      <point x="921" y="1065"/>
      <point x="973" y="1100" type="curve"/>
      <point x="973" y="1098" type="line"/>
      <point x="1007" y="1090"/>
      <point x="1016" y="1050"/>
      <point x="1016" y="982" type="curve" smooth="yes"/>
      <point x="1016" y="856"/>
      <point x="721" y="267"/>
      <point x="721" y="267" type="curve"/>
      <point x="721" y="266" type="line"/>
      <point x="429" y="983" type="line"/>
      <point x="425" y="991"/>
      <point x="430" y="1004"/>
      <point x="447" y="1009" type="curve"/>
      <point x="551" y="1021" type="line"/>
      <point x="551" y="1120" type="line"/>
      <point x="24" y="1120" type="line"/>
      <point x="24" y="1021" type="line"/>
      <point x="144" y="1005" type="line"/>
      <point x="144" y="1011" type="line"/>
      <point x="570" y="-26" type="line"/>
      <point x="757" y="-26" type="line"/>
      <point x="757" y="-26"/>
      <point x="1189" y="787"/>
    </contour>
    <contour>
      <point x="708" y="8" type="move" name="O"/>
    </contour>
    <contour>
      <point x="687" y="8" type="move" name="H"/>
    </contour>
    <contour>
      <point x="687" y="1238" type="move" name="U"/>
    </contour>
    <contour>
      <point x="687" y="-74" type="move" name="L"/>
    </contour>
  </outline>
</glyph>
<glyph name="TnLtrNineSeg28" format="1">
  <advance width="1080"/>
  <outline>
    <contour>
      <point x="58" y="-49" type="curve" smooth="yes"/>
      <point x="1136" y="1127" type="line" smooth="yes"/>
      <point x="1165" y="1158"/>
      <point x="1162" y="1207"/>
      <point x="1131" y="1236" type="curve" smooth="yes"/>
      <point x="1100" y="1265"/>
      <point x="1051" y="1262"/>
      <point x="1022" y="1231" type="curve" smooth="yes"/>
      <point x="-56" y="55" type="line" smooth="yes"/>
      <point x="-85" y="24"/>
      <point x="-82" y="-25"/>
      <point x="-51" y="-54" type="curve" smooth="yes"/>
      <point x="-20" y="-83"/>
      <point x="29" y="-80"/>
    </contour>
  </outline>
</glyph>
<glyph name="TnLtrNineSeg29" format="1">
  <advance width="1080"/>
  <outline>
    <contour>
      <point x="62" y="-45" type="curve" smooth="yes"/>
      <point x="1140" y="1325" type="line" smooth="yes"/>
      <point x="1166" y="1359"/>
      <point x="1161" y="1408"/>
      <point x="1127" y="1434" type="curve" smooth="yes"/>
      <point x="1093" y="1460"/>
      <point x="1044" y="1455"/>
      <point x="1018" y="1421" type="curve" smooth="yes"/>
      <point x="-60" y="51" type="line" smooth="yes"/>
      <point x="-86" y="17"/>
      <point x="-81" y="-32"/>
      <point x="-47" y="-58" type="curve" smooth="yes"/>
      <point x="-13" y="-84"/>
      <point x="36" y="-79"/>
    </contour>
  </outline>
</glyph>
<glyph name="TnLtrNineSeg34" format="1">
  <advance width="1080"/>
  <outline>
    <contour>
      <point x="15" y="123" type="curve" smooth="yes"/>
      <point x="1093" y="319" type="line" smooth="yes"/>
      <point x="1135" y="327"/>
      <point x="1163" y="367"/>
      <point x="1155" y="409" type="curve" smooth="yes"/>
      <point x="1147" y="451"/>
      <point x="1107" y="479"/>
      <point x="1065" y="471" type="curve" smooth="yes"/>
      <point x="-13" y="275" type="line" smooth="yes"/>
      <point x="-55" y="267"/>
      <point x="-83" y="227"/>
      <point x="-75" y="185" type="curve" smooth="yes"/>
      <point x="-67" y="143"/>
      <point x="-27" y="115"/>
    </contour>
  </outline>
</glyph>
<glyph name="TnLtrNineSeg36" format="1">
  <advance width="1080"/>
  <outline>
    <contour>
      <point x="38" y="131" type="curve" smooth="yes"/>
      <point x="1116" y="719" type="line" smooth="yes"/>
      <point x="1153" y="739"/>
      <point x="1167" y="787"/>
      <point x="1147" y="824" type="curve" smooth="yes"/>
      <point x="1127" y="861"/>
      <point x="1079" y="875"/>
      <point x="1042" y="855" type="curve" smooth="yes"/>
      <point x="-36" y="267" type="line" smooth="yes"/>
      <point x="-73" y="247"/>
      <point x="-87" y="199"/>
      <point x="-67" y="162" type="curve" smooth="yes"/>
      <point x="-47" y="125"/>
      <point x="1" y="111"/>
    </contour>
  </outline>
</glyph>
<glyph name="TnLtrNineSeg43" format="1">
  <advance width="1080"/>
  <outline>
    <contour>
      <point x="-13" y="319" type="curve" smooth="yes"/>
      <point x="1065" y="123" type="line" smooth="yes"/>
      <point x="1107" y="115"/>
      <point x="1147" y="143"/>
      <point x="1155" y="185" type="curve" smooth="yes"/>
      <point x="1163" y="227"/>
      <point x="1135" y="267"/>
      <point x="1093" y="275" type="curve" smooth="yes"/>
      <point x="15" y="471" type="line" smooth="yes"/>
      <point x="-27" y="479"/>
      <point x="-67" y="451"/>
      <point x="-75" y="409" type="curve" smooth="yes"/>
      <point x="-83" y="367"/>
      <point x="-55" y="327"/>
    </contour>
  </outline>
</glyph>
<glyph name="TnLtrNineSeg52" format="1">
  <advance width="1080"/>
  <outline>
    <contour>
      <point x="-36" y="523" type="curve" smooth="yes"/>
      <point x="1042" y="-65" type="line" smooth="yes"/>
      <point x="1079" y="-85"/>
      <point x="1127" y="-71"/>
      <point x="1147" y="-34" type="curve" smooth="yes"/>
      <point x="1167" y="3"/>
      <point x="1153" y="51"/>
      <point x="1116" y="71" type="curve" smooth="yes"/>
      <point x="38" y="659" type="line" smooth="yes"/>
      <point x="1" y="679"/>
      <point x="-47" y="665"/>
      <point x="-67" y="628" type="curve" smooth="yes"/>
      <point x="-87" y="591"/>
      <point x="-73" y="543"/>
    </contour>
  </outline>
</glyph>
<glyph name="TnLtrNineSeg81" format="1">
  <advance width="1080"/>
  <outline>
    <contour>
      <point x="-60" y="1131" type="curve" smooth="yes"/>
      <point x="1018" y="-241" type="line" smooth="yes"/>
      <point x="1044" y="-275"/>
      <point x="1093" y="-280"/>
      <point x="1127" y="-254" type="curve" smooth="yes"/>
      <point x="1161" y="-228"/>
      <point x="1166" y="-179"/>
      <point x="1140" y="-145" type="curve" smooth="yes"/>
      <point x="62" y="1227" type="line" smooth="yes"/>
      <point x="36" y="1261"/>
      <point x="-13" y="1266"/>
      <point x="-47" y="1240" type="curve" smooth="yes"/>
      <point x="-81" y="1214"/>
      <point x="-86" y="1165"/>
    </contour>
  </outline>
</glyph>
